<?xml version="1.0" encoding="UTF-8" ?>
<!DOCTYPE svg PUBLIC "-//W3C//DTD SVG 1.1//EN" "http://www.w3.org/Graphics/SVG/1.1/DTD/svg11.dtd">
<svg width="606pt" height="644pt" viewBox="0 0 606 644" version="1.1" xmlns="http://www.w3.org/2000/svg">
<g id="#ffa900ff">
<path fill="#ffa900" opacity="1.00" d=" M 215.84 0.00 L 305.54 0.00 C 305.55 29.24 305.51 58.48 305.55 87.72 C 320.19 83.08 334.72 78.11 349.39 73.60 C 349.29 138.10 349.35 202.61 349.36 267.12 C 304.86 267.02 260.35 267.12 215.85 267.07 C 215.83 227.38 215.84 187.69 215.84 148.00 C 215.84 98.67 215.84 49.33 215.84 0.00 Z" />
</g>
<g id="#fde888ff">
<path fill="#fde888" opacity="1.00" d=" M 305.54 0.00 L 349.38 0.00 C 349.39 24.53 349.37 49.06 349.39 73.60 C 334.72 78.11 320.19 83.08 305.55 87.72 C 305.51 58.48 305.55 29.24 305.54 0.00 Z" />
</g>
<g id="#ffdb0cff">
<path fill="#ffdb0c" opacity="1.00" d=" M 349.38 0.00 L 393.44 0.00 C 393.41 29.34 393.56 58.68 393.38 88.01 C 378.72 83.21 363.97 78.64 349.39 73.60 C 349.37 49.06 349.39 24.53 349.38 0.00 Z" />
</g>
<g id="#ff8800ff">
<path fill="#ff8800" opacity="1.00" d=" M 393.44 0.00 L 483.00 0.00 C 483.00 49.33 483.00 98.67 483.00 148.00 C 482.99 187.71 483.00 227.42 482.99 267.13 C 438.45 267.15 393.90 267.18 349.36 267.12 C 349.35 202.61 349.29 138.10 349.39 73.60 C 363.97 78.64 378.72 83.21 393.38 88.01 C 393.56 58.68 393.41 29.34 393.44 0.00 Z" />
</g>
<g id="#e6e6e6ff">
<path fill="#e6e6e6" opacity="1.00" d=" M 0.00 47.75 C 35.33 47.75 70.67 47.75 106.00 47.75 C 114.55 81.16 123.06 114.59 131.59 148.00 C 155.84 243.08 180.12 338.15 204.36 433.24 C 210.95 458.99 217.50 484.76 224.10 510.51 C 265.77 510.41 307.45 510.66 349.13 510.39 C 349.67 523.04 349.30 535.71 349.33 548.36 C 322.24 548.06 295.13 548.39 268.03 548.20 C 260.82 533.08 247.64 521.00 232.02 514.99 C 217.50 509.22 200.83 508.97 186.13 514.27 C 149.62 371.36 113.18 228.42 76.71 85.50 C 51.14 85.50 25.57 85.50 0.00 85.50 L 0.00 47.75 Z" />
</g>
<g id="#82d2ffff">
<path fill="#82d2ff" opacity="1.00" d=" M 131.59 148.00 C 159.67 148.00 187.76 148.00 215.84 148.00 C 215.84 187.69 215.83 227.38 215.85 267.07 C 260.35 267.12 304.86 267.02 349.36 267.12 C 349.39 322.53 349.34 377.94 349.39 433.35 C 301.05 433.10 252.70 433.34 204.36 433.24 C 180.12 338.15 155.84 243.08 131.59 148.00 Z" />
</g>
<g id="#08b7fcff">
<path fill="#08b7fc" opacity="1.00" d=" M 483.00 148.00 C 524.00 148.01 565.00 147.97 606.00 148.02 L 606.00 148.46 C 603.57 157.10 601.59 165.87 599.35 174.56 C 577.81 260.83 556.17 347.07 534.69 433.36 C 472.93 433.50 411.15 433.51 349.39 433.35 C 349.34 377.94 349.39 322.53 349.36 267.12 C 393.90 267.18 438.45 267.15 482.99 267.13 C 483.00 227.42 482.99 187.71 483.00 148.00 Z" />
</g>
<g id="#ccccccff">
<path fill="#cccccc" opacity="1.00" d=" M 349.13 510.39 C 389.44 510.07 429.76 510.39 470.08 510.23 C 472.88 510.14 475.69 510.07 478.48 510.46 C 453.04 509.86 428.22 525.38 417.48 548.43 C 394.77 548.48 372.04 548.61 349.33 548.36 C 349.30 535.71 349.67 523.04 349.13 510.39 Z" />
</g>
<g id="#999999ff">
<path fill="#999999" opacity="1.00" d=" M 186.13 514.27 C 200.83 508.97 217.50 509.22 232.02 514.99 C 247.64 521.00 260.82 533.08 268.03 548.20 C 275.08 562.44 276.55 579.30 272.40 594.61 C 265.34 621.87 239.32 643.20 210.99 643.67 C 191.53 644.82 171.84 636.60 158.96 621.99 C 139.58 601.65 135.94 568.46 150.25 544.33 C 158.03 530.39 171.09 519.55 186.13 514.27 Z" />
</g>
<g id="#666666ff">
<path fill="#666666" opacity="1.00" d=" M 417.48 548.43 C 428.22 525.38 453.04 509.86 478.48 510.46 C 501.95 510.65 524.70 524.41 535.80 545.08 C 549.31 568.65 546.04 600.54 527.80 620.73 C 514.97 635.96 494.94 644.78 475.02 643.68 C 447.39 643.38 421.79 623.24 413.93 596.96 C 408.95 581.11 410.19 563.36 417.48 548.43 Z" />
</g>
</svg>
