<?xml version="1.0" encoding="UTF-8" ?>
<!DOCTYPE svg PUBLIC "-//W3C//DTD SVG 1.1//EN" "http://www.w3.org/Graphics/SVG/1.1/DTD/svg11.dtd">
<svg width="537pt" height="767pt" viewBox="0 0 537 767" version="1.1" xmlns="http://www.w3.org/2000/svg">
<g id="#ff9900ff">
<path fill="#ff9900" opacity="1.00" d=" M 151.96 0.00 L 384.42 0.00 C 384.43 16.33 384.42 32.67 384.43 49.00 C 384.42 65.33 384.45 81.67 384.41 98.00 C 345.64 97.99 306.87 98.02 268.10 97.98 C 229.39 97.91 190.68 97.98 151.98 97.95 C 151.95 81.63 151.98 65.32 151.96 49.00 C 151.96 32.67 151.96 16.33 151.96 0.00 Z" />
</g>
<g id="#e6e6e6ff">
<path fill="#e6e6e6" opacity="1.00" d=" M 0.00 49.00 C 50.65 49.00 101.31 49.00 151.96 49.00 C 151.98 65.32 151.95 81.63 151.98 97.95 C 190.68 97.98 229.39 97.91 268.10 97.98 C 268.20 155.88 268.11 213.79 268.12 271.69 C 268.13 286.66 268.10 301.63 268.14 316.61 C 268.16 356.91 268.14 397.22 268.12 437.53 C 268.13 452.49 268.12 467.45 268.12 482.41 C 268.15 522.71 268.15 563.01 268.15 603.31 C 268.10 618.28 268.13 633.26 268.13 648.23 C 268.09 687.40 268.27 726.57 268.03 765.74 C 178.69 765.92 89.34 765.84 0.00 765.78 L 0.00 49.00 M 88.15 240.01 C 88.14 276.07 88.18 312.13 88.12 348.19 C 124.18 348.62 160.27 348.19 196.33 348.40 C 196.40 347.80 196.53 346.61 196.59 346.02 C 196.65 310.72 196.53 275.41 196.65 240.11 C 194.43 239.96 192.21 239.85 189.99 239.88 C 156.04 240.01 122.09 239.76 88.15 240.01 M 88.14 405.88 C 88.16 441.94 88.14 478.00 88.15 514.05 C 122.45 514.41 156.76 514.05 191.06 514.23 C 192.94 514.26 194.81 514.10 196.68 513.87 C 196.55 477.95 196.54 442.02 196.69 406.10 C 195.13 405.86 193.57 405.66 191.99 405.70 C 157.38 405.89 122.75 405.52 88.14 405.88 M 88.14 571.70 C 88.16 607.79 88.15 643.87 88.14 679.96 C 124.31 679.98 160.49 680.16 196.65 679.87 C 196.37 643.76 196.95 607.62 196.37 571.52 C 160.29 571.71 124.21 571.35 88.14 571.70 Z" />
</g>
<g id="#ccccccff">
<path fill="#cccccc" opacity="1.00" d=" M 384.43 49.00 C 435.28 49.06 486.14 48.87 537.00 49.10 L 537.00 767.00 L 0.00 767.00 L 0.00 765.78 C 89.34 765.84 178.69 765.92 268.03 765.74 C 268.27 726.57 268.09 687.40 268.13 648.23 C 332.38 648.24 396.63 648.25 460.87 648.23 C 460.86 633.26 460.90 618.30 460.85 603.33 C 396.62 603.32 332.38 603.38 268.15 603.31 C 268.15 563.01 268.15 522.71 268.12 482.41 C 332.38 482.42 396.63 482.46 460.88 482.40 C 460.87 467.44 460.87 452.49 460.88 437.54 C 396.63 437.49 332.37 437.51 268.12 437.53 C 268.14 397.22 268.16 356.91 268.14 316.61 C 332.38 316.56 396.61 316.58 460.85 316.59 C 460.90 301.63 460.86 286.67 460.88 271.70 C 396.62 271.67 332.37 271.69 268.12 271.69 C 268.11 213.79 268.20 155.88 268.10 97.98 C 306.87 98.02 345.64 97.99 384.41 98.00 C 384.45 81.67 384.42 65.33 384.43 49.00 Z" />
</g>
<g id="#82d2ffff">
<path fill="#82d2ff" opacity="1.00" d=" M 88.15 240.01 C 122.09 239.76 156.04 240.01 189.99 239.88 C 192.21 239.85 194.43 239.96 196.65 240.11 C 196.53 275.41 196.65 310.72 196.59 346.02 C 196.53 346.61 196.40 347.80 196.33 348.40 C 160.27 348.19 124.18 348.62 88.12 348.19 C 88.18 312.13 88.14 276.07 88.15 240.01 Z" />
<path fill="#82d2ff" opacity="1.00" d=" M 88.14 405.88 C 122.75 405.52 157.38 405.89 191.99 405.70 C 193.57 405.66 195.13 405.86 196.69 406.10 C 196.54 442.02 196.55 477.95 196.68 513.87 C 194.81 514.10 192.94 514.26 191.06 514.23 C 156.76 514.05 122.45 514.41 88.15 514.05 C 88.14 478.00 88.16 441.94 88.14 405.88 Z" />
<path fill="#82d2ff" opacity="1.00" d=" M 88.14 571.70 C 124.21 571.35 160.29 571.71 196.37 571.52 C 196.95 607.62 196.37 643.76 196.65 679.87 C 160.49 680.16 124.31 679.98 88.14 679.96 C 88.15 643.87 88.16 607.79 88.14 571.70 Z" />
</g>
<g id="#4d4d4dff">
<path fill="#4d4d4d" opacity="1.00" d=" M 268.12 271.69 C 332.37 271.69 396.62 271.67 460.88 271.70 C 460.86 286.67 460.90 301.63 460.85 316.59 C 396.61 316.58 332.38 316.56 268.14 316.61 C 268.10 301.63 268.13 286.66 268.12 271.69 Z" />
<path fill="#4d4d4d" opacity="1.00" d=" M 268.12 437.53 C 332.37 437.51 396.63 437.49 460.88 437.54 C 460.87 452.49 460.87 467.44 460.88 482.40 C 396.63 482.46 332.38 482.42 268.12 482.41 C 268.12 467.45 268.13 452.49 268.12 437.53 Z" />
<path fill="#4d4d4d" opacity="1.00" d=" M 268.15 603.31 C 332.38 603.38 396.62 603.32 460.85 603.33 C 460.90 618.30 460.86 633.26 460.87 648.23 C 396.63 648.25 332.38 648.24 268.13 648.23 C 268.13 633.26 268.10 618.28 268.15 603.31 Z" />
</g>
</svg>
