<?xml version="1.0" encoding="UTF-8" ?>
<!DOCTYPE svg PUBLIC "-//W3C//DTD SVG 1.1//EN" "http://www.w3.org/Graphics/SVG/1.1/DTD/svg11.dtd">
<svg width="781pt" height="512pt" viewBox="0 0 781 512" version="1.1" xmlns="http://www.w3.org/2000/svg">
<g id="#4d4d4dff">
<path fill="#4d4d4d" opacity="1.00" d=" M 435.36 0.00 L 515.07 0.00 C 525.80 20.31 536.38 40.71 547.11 61.03 C 542.64 70.32 540.89 80.97 542.41 91.18 C 542.20 91.70 541.79 92.74 541.59 93.26 C 531.84 93.27 522.09 93.15 512.34 93.32 C 504.09 77.42 495.78 61.55 487.38 45.72 C 470.04 45.77 452.71 45.75 435.37 45.74 C 435.35 30.49 435.37 15.25 435.36 0.00 Z" />
<path fill="#4d4d4d" opacity="1.00" d=" M 628.39 293.52 C 642.02 288.48 656.62 286.09 671.15 286.63 C 712.95 287.22 752.98 313.82 770.08 351.90 C 780.05 372.80 782.84 396.85 778.77 419.58 C 775.31 438.35 767.01 456.22 754.86 470.95 C 734.34 495.84 702.80 511.52 670.46 512.00 L 665.57 512.00 C 650.83 511.59 635.99 508.79 622.62 502.44 C 608.10 496.00 594.73 486.73 584.17 474.81 C 569.76 458.98 560.11 438.87 556.59 417.77 C 555.21 409.23 554.72 400.54 555.31 391.90 C 557.26 358.82 574.85 327.05 601.89 307.89 C 609.88 301.69 619.21 297.60 628.39 293.52 Z" />
</g>
<g id="#ffdb0cff">
<path fill="#ffdb0c" opacity="1.00" d=" M 595.74 24.79 C 606.94 22.20 618.49 23.20 629.87 23.01 C 629.88 63.75 629.88 104.50 629.87 145.25 C 626.43 145.27 623.00 145.24 619.58 145.21 C 607.60 145.38 595.28 144.59 584.11 139.90 C 563.10 132.37 545.24 113.81 542.41 91.18 C 540.89 80.97 542.64 70.32 547.11 61.03 C 556.15 41.93 575.38 29.01 595.74 24.79 Z" />
</g>
<g id="#006dffff">
<path fill="#006dff" opacity="1.00" d=" M 0.00 39.86 C 72.64 39.88 145.27 39.81 217.91 39.90 C 217.85 57.80 218.06 75.71 217.80 93.61 C 145.20 93.52 72.60 93.59 0.00 93.58 L 0.00 39.86 Z" />
</g>
<g id="#ff8800ff">
<path fill="#ff8800" opacity="1.00" d=" M 542.41 91.18 C 545.24 113.81 563.10 132.37 584.11 139.90 C 595.28 144.59 607.60 145.38 619.58 145.21 C 636.72 161.62 653.96 177.93 671.11 194.34 C 671.22 225.10 671.13 255.86 671.15 286.63 C 656.62 286.09 642.02 288.48 628.39 293.52 C 619.21 297.60 609.88 301.69 601.89 307.89 C 574.85 327.05 557.26 358.82 555.31 391.90 C 554.72 400.54 555.21 409.23 556.59 417.77 C 474.99 417.67 393.39 417.92 311.80 417.64 C 311.39 377.52 311.87 337.39 311.56 297.27 C 346.03 297.20 380.51 297.26 414.99 297.24 C 435.19 297.90 455.56 291.71 472.03 280.01 C 496.46 262.97 512.31 233.92 512.34 204.01 C 512.39 167.11 512.44 130.21 512.34 93.32 C 522.09 93.15 531.84 93.27 541.59 93.26 C 541.79 92.74 542.20 91.70 542.41 91.18 Z" />
<path fill="#ff8800" opacity="1.00" d=" M 123.81 141.33 C 155.11 141.32 186.40 141.33 217.69 141.33 C 248.98 141.34 280.28 141.32 311.57 141.34 C 311.58 160.69 311.58 180.05 311.57 199.40 C 283.72 199.28 255.86 199.39 228.01 199.34 C 224.37 199.36 220.71 199.22 217.09 199.72 C 215.06 199.90 213.02 200.03 210.98 200.04 C 183.64 199.97 156.31 200.06 128.97 200.02 C 123.20 199.91 117.34 200.72 111.65 199.42 L 113.04 199.17 C 116.63 199.11 120.21 199.16 123.79 199.15 C 123.82 179.88 123.78 160.61 123.81 141.33 Z" />
</g>
<g id="#08b7fcff">
<path fill="#08b7fc" opacity="1.00" d=" M 0.00 93.58 C 72.60 93.59 145.20 93.52 217.80 93.61 C 217.54 109.51 217.76 125.42 217.69 141.33 C 186.40 141.33 155.11 141.32 123.81 141.33 C 123.78 160.61 123.82 179.88 123.79 199.15 C 120.21 199.16 116.63 199.11 113.04 199.17 C 75.36 199.15 37.68 199.19 0.00 199.17 L 0.00 93.58 Z" />
</g>
<g id="#ffa900ff">
<path fill="#ffa900" opacity="1.00" d=" M 46.04 221.96 C 64.83 207.93 88.15 199.62 111.65 199.42 C 117.34 200.72 123.20 199.91 128.97 200.02 C 156.31 200.06 183.64 199.97 210.98 200.04 C 213.02 200.03 215.06 199.90 217.09 199.72 C 248.58 199.33 280.08 199.62 311.57 199.59 C 311.56 232.15 311.59 264.71 311.56 297.27 C 311.87 337.39 311.39 377.52 311.80 417.64 C 295.13 417.32 278.46 417.59 261.79 417.51 C 187.58 417.50 113.36 417.50 39.15 417.51 C 26.10 417.49 13.05 417.50 0.00 417.50 L 0.00 306.47 C 2.04 273.36 19.37 241.66 46.04 221.96 Z" />
</g>
<g id="#666666ff">
<path fill="#666666" opacity="1.00" d=" M 39.15 417.51 C 113.36 417.50 187.58 417.50 261.79 417.51 C 257.61 442.74 244.65 466.41 225.52 483.41 C 205.50 500.99 179.34 511.80 152.56 512.00 L 148.51 512.00 C 123.64 511.86 99.29 502.53 79.89 487.15 C 58.30 470.05 43.61 444.65 39.15 417.51 Z" />
</g>
</svg>
