<?xml version="1.0" encoding="UTF-8" ?>
<!DOCTYPE svg PUBLIC "-//W3C//DTD SVG 1.1//EN" "http://www.w3.org/Graphics/SVG/1.1/DTD/svg11.dtd">
<svg width="512pt" height="512pt" viewBox="0 0 512 512" version="1.1" xmlns="http://www.w3.org/2000/svg">
<g id="#ffdb0cff">
<path fill="#ffdb0c" opacity="1.00" d=" M 168.48 0.00 L 173.22 0.00 C 173.38 10.01 173.51 20.03 173.13 30.03 C 161.59 29.92 150.24 34.16 140.96 40.89 C 128.38 50.53 120.27 66.03 120.27 81.96 C 120.23 89.31 120.26 96.65 120.26 104.00 C 120.21 124.27 120.46 144.54 120.14 164.80 C 110.14 164.89 100.15 164.86 90.15 164.82 C 90.43 144.55 90.23 124.27 90.25 104.00 C 90.23 97.34 90.29 90.68 90.23 84.02 C 89.67 69.35 93.72 54.68 100.98 41.98 C 110.95 24.21 127.85 10.59 147.14 4.16 C 154.01 1.72 161.29 0.92 168.48 0.00 Z" />
</g>
<g id="#ffac00ff">
<path fill="#ffac00" opacity="1.00" d=" M 173.22 0.00 L 180.50 0.00 C 194.49 1.56 208.21 6.13 219.79 14.24 C 238.06 26.52 250.92 46.44 254.76 68.09 C 256.89 79.94 256.13 92.03 256.27 104.00 C 256.23 124.32 256.37 144.64 256.20 164.96 C 246.14 165.47 236.02 165.46 225.96 164.98 C 226.09 144.65 226.00 124.33 226.01 104.00 C 225.67 92.35 227.12 80.44 223.96 69.05 C 220.97 57.68 213.89 47.57 204.54 40.50 C 195.39 34.03 184.35 30.27 173.13 30.03 C 173.51 20.03 173.38 10.01 173.22 0.00 Z" />
<path fill="#ffac00" opacity="1.00" d=" M 79.03 164.87 C 82.74 164.78 86.44 164.76 90.15 164.82 C 100.15 164.86 110.14 164.89 120.14 164.80 C 123.85 164.75 127.57 164.79 131.29 164.90 C 131.48 174.87 131.63 184.86 131.21 194.82 C 113.84 194.80 96.46 194.77 79.08 194.83 C 78.92 184.85 78.99 174.86 79.03 164.87 Z" />
<path fill="#ffac00" opacity="1.00" d=" M 221.17 212.24 C 263.03 212.29 304.89 212.28 346.75 212.25 C 353.47 212.22 360.19 212.38 366.91 212.15 C 366.61 250.43 366.87 288.71 366.78 327.00 C 366.89 348.37 366.55 369.74 366.95 391.11 C 358.24 391.28 349.45 387.94 343.33 381.68 C 336.63 375.38 332.99 366.20 333.02 357.05 C 332.99 339.05 332.99 321.05 333.03 303.04 C 336.68 303.13 340.33 303.06 343.98 302.88 C 344.32 292.97 344.32 283.04 343.98 273.13 C 326.67 272.87 309.33 272.88 292.02 273.13 C 291.68 283.04 291.68 292.97 292.02 302.88 C 295.67 303.06 299.32 303.13 302.97 303.05 C 303.07 321.71 302.91 340.37 303.05 359.03 C 303.28 374.25 309.46 389.14 319.63 400.40 C 332.46 414.67 352.01 422.43 371.13 421.27 C 369.78 421.53 368.44 421.84 367.11 422.16 C 366.43 427.75 366.88 433.38 366.78 439.00 C 366.83 463.33 366.68 487.67 366.86 512.00 L 221.11 512.00 C 221.18 412.08 221.06 312.16 221.17 212.24 Z" />
</g>
<g id="#82d2ffff">
<path fill="#82d2ff" opacity="1.00" d=" M 0.00 104.00 C 30.08 104.00 60.17 104.00 90.25 104.00 C 90.23 124.27 90.43 144.55 90.15 164.82 C 86.44 164.76 82.74 164.78 79.03 164.87 C 78.99 174.86 78.92 184.85 79.08 194.83 C 96.46 194.77 113.84 194.80 131.21 194.82 C 131.63 184.86 131.48 174.87 131.29 164.90 C 127.57 164.79 123.85 164.75 120.14 164.80 C 120.46 144.54 120.21 124.27 120.26 104.00 C 137.86 104.00 155.46 104.00 173.06 104.00 C 173.20 240.00 173.15 376.00 173.09 512.00 L 0.00 512.00 L 0.00 104.00 Z" />
</g>
<g id="#08b7fcff">
<path fill="#08b7fc" opacity="1.00" d=" M 173.06 104.00 C 190.71 104.00 208.36 104.00 226.01 104.00 C 226.00 124.33 226.09 144.65 225.96 164.98 C 222.29 164.72 218.61 164.78 214.94 164.87 C 214.89 174.86 214.77 184.85 215.01 194.83 C 232.41 194.81 249.81 194.80 267.21 194.83 C 267.52 184.85 267.40 174.86 267.27 164.87 C 263.58 164.78 259.88 164.71 256.20 164.96 C 256.37 144.64 256.23 124.32 256.27 104.00 C 286.41 104.08 316.56 103.85 346.71 104.11 C 346.62 140.16 346.52 176.20 346.75 212.25 C 304.89 212.28 263.03 212.29 221.17 212.24 C 221.06 312.16 221.18 412.08 221.11 512.00 L 173.09 512.00 C 173.15 376.00 173.20 240.00 173.06 104.00 Z" />
</g>
<g id="#fe8700ff">
<path fill="#fe8700" opacity="1.00" d=" M 214.94 164.87 C 218.61 164.78 222.29 164.72 225.96 164.98 C 236.02 165.46 246.14 165.47 256.20 164.96 C 259.88 164.71 263.58 164.78 267.27 164.87 C 267.40 174.86 267.52 184.85 267.21 194.83 C 249.81 194.80 232.41 194.81 215.01 194.83 C 214.77 184.85 214.89 174.86 214.94 164.87 Z" />
<path fill="#fe8700" opacity="1.00" d=" M 366.91 212.15 C 415.27 211.87 463.64 212.11 512.00 212.03 L 512.00 512.00 L 366.86 512.00 C 366.68 487.67 366.83 463.33 366.78 439.00 C 366.88 433.38 366.43 427.75 367.11 422.16 C 368.44 421.84 369.78 421.53 371.13 421.27 C 388.59 419.94 405.52 411.23 416.40 397.45 C 425.41 386.39 430.40 372.32 430.66 358.08 C 430.75 339.78 430.61 321.48 430.74 303.18 C 420.57 302.99 410.39 303.04 400.23 303.15 C 400.26 321.09 400.26 339.04 400.24 356.99 C 400.43 366.72 396.08 376.40 388.71 382.76 C 382.83 388.15 374.84 390.79 366.95 391.11 C 366.55 369.74 366.89 348.37 366.78 327.00 C 366.87 288.71 366.61 250.43 366.91 212.15 Z" />
<path fill="#fe8700" opacity="1.00" d=" M 292.02 273.13 C 309.33 272.88 326.67 272.87 343.98 273.13 C 344.32 283.04 344.32 292.97 343.98 302.88 C 340.33 303.06 336.68 303.13 333.03 303.04 C 323.01 302.98 312.99 302.97 302.97 303.05 C 299.32 303.13 295.67 303.06 292.02 302.88 C 291.68 292.97 291.68 283.04 292.02 273.13 Z" />
</g>
<g id="#ebebecff">
<path fill="#ebebec" opacity="1.00" d=" M 302.97 303.05 C 312.99 302.97 323.01 302.98 333.03 303.04 C 332.99 321.05 332.99 339.05 333.02 357.05 C 332.99 366.20 336.63 375.38 343.33 381.68 C 349.45 387.94 358.24 391.28 366.95 391.11 C 374.84 390.79 382.83 388.15 388.71 382.76 C 396.08 376.40 400.43 366.72 400.24 356.99 C 400.26 339.04 400.26 321.09 400.23 303.15 C 410.39 303.04 420.57 302.99 430.74 303.18 C 430.61 321.48 430.75 339.78 430.66 358.08 C 430.40 372.32 425.41 386.39 416.40 397.45 C 405.52 411.23 388.59 419.94 371.13 421.27 C 352.01 422.43 332.46 414.67 319.63 400.40 C 309.46 389.14 303.28 374.25 303.05 359.03 C 302.91 340.37 303.07 321.71 302.97 303.05 Z" />
</g>
</svg>
